<svg height="482pt" viewBox="-81 0 482 482.39003" width="482pt" xmlns="http://www.w3.org/2000/svg"><path d="m224.179688 293.390625c0 8.285156-6.714844 15-15 15-8.28125 0-15-6.714844-15-15s6.71875-15 15-15c8.285156 0 15 6.714844 15 15zm0 0" fill="#f8ec7d"/><path d="m257.179688 48c.003906 19.195312-13.625 35.691406-32.476563 39.304688-18.851563 3.613281-37.613281-6.675782-44.707031-24.511719-7.09375-17.835938-.519532-38.199219 15.664062-48.519531 16.1875-10.320313 37.421875-7.691407 50.601563 6.265624 7.027343 7.414063 10.9375 17.246094 10.917969 27.460938zm0 0" fill="#f8ec7d"/><path d="m311.53125 123.390625v306.519531l-145.21875 43.480469v-306.519531zm-87.351562 170c0-8.285156-6.714844-15-15-15-8.28125 0-15 6.714844-15 15s6.71875 15 15 15c8.285156-.003906 15-6.71875 15-15zm0 0" fill="#e48e66"/><g fill="#63316d"><path d="m320.433594 122.128906c-.035156-.246094-.078125-.488281-.128906-.726562-.023438-.097656-.050782-.1875-.074219-.285156-.058594-.226563-.125-.453126-.199219-.675782-.03125-.09375-.066406-.183594-.101562-.273437-.085938-.222657-.179688-.4375-.28125-.652344-.039063-.085937-.078126-.167969-.121094-.25-.117188-.230469-.246094-.453125-.382813-.667969-.039062-.058594-.070312-.121094-.109375-.179687-.179687-.269531-.371094-.53125-.578125-.78125-.042969-.046875-.089843-.09375-.132812-.140625-.167969-.195313-.34375-.382813-.527344-.5625-.078125-.078125-.164063-.148438-.246094-.222656-.164062-.148438-.332031-.292969-.507812-.429688-.046875-.035156-.085938-.074219-.132813-.109375s-.09375-.058594-.136718-.089844c-.191407-.136719-.386719-.265625-.589844-.386719-.078125-.046874-.152344-.101562-.234375-.144531-.277344-.15625-.558594-.296875-.851563-.425781l-.011718-.003906c-.3125-.132813-.632813-.25-.957032-.347656-.042968-.011719-.085937-.019532-.125-.03125-.269531-.078126-.539062-.144532-.816406-.195313-.101562-.015625-.203125-.027344-.300781-.042969-.21875-.035156-.4375-.0625-.664063-.078125-.125-.011719-.25-.015625-.375-.019531-.105468 0-.207031-.015625-.316406-.015625h-198.699219c-4.972656 0-9 4.027344-9 9v81.828125c0 4.972656 4.027344 9 9 9 4.96875 0 9-4.027344 9-9v-72.828125h128.261719l-86.363281 25.855469c-3.808594 1.144531-6.417969 4.648437-6.417969 8.625v254.039062h-35.480469v-69.640625c0-4.96875-4.03125-9-9-9-4.972656 0-9 4.03125-9 9v78.640625c0 4.96875 4.027344 9 9 9h44.480469v34.480469c0 2.84375 1.34375 5.519531 3.625 7.21875s5.230469 2.21875 7.953125 1.402344l145.222656-43.480469c3.808594-1.140625 6.417969-4.644531 6.417969-8.621094v-306.519531c0-.335937-.019531-.667969-.058594-1-.011718-.089844-.027344-.175781-.039062-.261719zm-17.902344 301.082032-127.21875 38.089843v-287.730469l127.21875-38.089843zm0 0"/><path d="m209.179688 317.390625c13.257812 0 24-10.746094 24-24s-10.742188-24-24-24c-13.253907 0-24 10.746094-24 24 .015624 13.246094 10.753906 23.984375 24 24zm0-30c3.316406 0 6 2.6875 6 6s-2.683594 6-6 6c-3.3125 0-6-2.6875-6-6 .003906-3.3125 2.6875-5.996094 6-6zm0 0"/><path d="m217.179688 96c26.511718 0 48-21.492188 48-48s-21.488282-48-48-48c-26.507813 0-48 21.492188-48 48-.070313 12.753906 4.964843 25.003906 13.980468 34.019531 9.019532 9.015625 21.269532 14.050781 34.019532 13.980469zm0-80c17.675781 0 32 14.328125 32 32s-14.324219 32-32 32c-17.671876 0-32-14.328125-32-32s14.328124-32 32-32zm0 0"/><path d="m205.300781 44.089844 7.449219 4.769531v17.800781c0 4.417969 3.582031 8 8 8s8-3.582031 8-8v-22.179687c0-2.726563-1.390625-5.269531-3.6875-6.738281l-11.136719-7.128907c-3.722656-2.382812-8.671875-1.296875-11.054687 2.425781-2.378906 3.722657-1.292969 8.667969 2.429687 11.050782zm0 0"/><path d="m30.910156 285.390625h107.28125c4.96875 0 9-4.03125 9-9 0-4.972656-4.03125-9-9-9h-107.277344l25.640626-25.648437c3.515624-3.511719 3.515624-9.210938 0-12.726563-3.515626-3.515625-9.214844-3.515625-12.730469 0l-40.742188 40.761719c-.070312.0625-.128906.132812-.195312.199218-.046875.050782-.097657.101563-.148438.152344-.160156.167969-.316406.335938-.464843.515625-.03125.035157-.054688.070313-.085938.105469-.542969.667969-.984375 1.40625-1.316406 2.199219-.039063.09375-.058594.191406-.097656.289062-.085938.238281-.167969.480469-.238282.726563-.046875.164062-.089844.324218-.125.488281-.054687.242187-.09375.488281-.125.738281-.039062.265625-.058594.53125-.070312.800782-.003906.132812-.019532.265624-.019532.398437 0 .054687.007813.105469.007813.160156 0 .199219.011719.398438.03125.589844.015625.207031.042969.410156.074219.613281.035156.222656.074218.445313.125.664063.058594.265625.128906.527343.214844.78125.050781.15625.109374.308593.167968.460937.085938.222656.183594.4375.285156.652344.074219.152344.148438.304688.230469.453125.152344.269531.3125.527344.488281.777344.09375.132812.191407.261719.292969.386719.167969.214843.34375.421874.53125.621093.0625.066407.113281.140625.175781.199219l41.011719 41.011719c3.515625 3.511719 9.210938 3.511719 12.726563 0 3.515625-3.515625 3.515625-9.214844 0-12.730469zm0 0"/></g></svg>